<svg width="100" height="100" viewBox="0 0 100 100" fill="none" xmlns="http://www.w3.org/2000/svg">
<path d="M29 37.5L61.5 30.5V34.5L45.5 38.1923V76.5L41 80V39.2308L29 42V37.5Z" fill="black"/>
<path d="M46.5 72.5001C43.5047 76.6982 41.1074 77.4342 36.5 78.0001C31.6266 77.1527 32.0601 74.1898 31 71.0001C31.3995 64.8152 32.7789 63.0344 35.5 62.5001C35.8307 61.8679 46.1017 62.3955 48 64.4999C61.8624 72.4426 59.2904 80.1575 67 79L63 81.5C54.3274 80.0666 58.8505 71.8274 46.5 67.5C44.2092 65.0611 38.2251 65.8882 35.5 66.0001C34.0469 66.8043 32.5453 67.8854 32.9999 71.0001C33.4074 72.7901 35.1478 74.3316 36.5 74.5001C39.8964 75.2568 41.4384 73.6153 43 70.5001L46.5 72.5001Z" fill="black"/>
<path d="M35.5 62.5001C32.7789 63.0344 31.3995 64.8152 31 71.0001C32.0601 74.1898 31.6266 77.1527 36.5 78.0001C41.1074 77.4342 43.5047 76.6982 46.5 72.5001L43 70.5001C41.4384 73.6153 39.8964 75.2568 36.5 74.5001C35.1478 74.3316 33.4074 72.7901 32.9999 71.0001C32.5453 67.8854 34.0469 66.8043 35.5 66.0001C38.2251 65.8882 44.2092 65.0611 46.5 67.5C58.8505 71.8274 54.3274 80.0666 63 81.5L67 79C59.2904 80.1575 61.8624 72.4426 48 64.4999M35.5 62.5001C35.8307 61.8679 46.1017 62.3955 48 64.4999M35.5 62.5001L48 64.4999" stroke="black"/>
<path d="M46.5 72.5L43 70.5C50.3974 54.01 53.7693 41.7417 59 20L60.5 28C55.7691 46.2688 52.6232 55.916 46.5 72.5Z" fill="black" stroke="black"/>
</svg>
